<mxfile host="app.diagrams.net" modified="2021-04-28T07:22:47.137Z" agent="5.0 (Windows NT 10.0; Win64; x64) AppleWebKit/537.36 (KHTML, like Gecko) Chrome/90.0.4430.85 Safari/537.36 Edg/90.0.818.46" etag="wm2BQLey8g9CjiwW7vwm" version="14.6.6" type="github">
  <diagram name="Page-1" id="12e1b939-464a-85fe-373e-61e167be1490">
    <mxGraphModel dx="1685" dy="891" grid="1" gridSize="10" guides="1" tooltips="1" connect="1" arrows="1" fold="1" page="1" pageScale="1.5" pageWidth="1169" pageHeight="826" background="#ffffff" math="0" shadow="0">
      <root>
        <mxCell id="0" />
        <mxCell id="1" parent="0" />
        <mxCell id="r-cdDHOCOQJCGdyeqQd3-2" value="" style="shape=actor;whiteSpace=wrap;html=1;" vertex="1" parent="1">
          <mxGeometry x="170" y="620" width="50" height="60" as="geometry" />
        </mxCell>
        <mxCell id="r-cdDHOCOQJCGdyeqQd3-3" value="" style="aspect=fixed;pointerEvents=1;shadow=0;dashed=0;html=1;strokeColor=none;labelPosition=center;verticalLabelPosition=bottom;verticalAlign=top;align=center;fillColor=#00188D;shape=mxgraph.azure.computer" vertex="1" parent="1">
          <mxGeometry x="250" y="600" width="111.11" height="100" as="geometry" />
        </mxCell>
        <mxCell id="r-cdDHOCOQJCGdyeqQd3-5" value="" style="endArrow=classic;html=1;" edge="1" parent="1">
          <mxGeometry width="50" height="50" relative="1" as="geometry">
            <mxPoint x="390" y="629" as="sourcePoint" />
            <mxPoint x="460" y="629" as="targetPoint" />
          </mxGeometry>
        </mxCell>
        <mxCell id="r-cdDHOCOQJCGdyeqQd3-6" value="" style="endArrow=classic;html=1;" edge="1" parent="1">
          <mxGeometry width="50" height="50" relative="1" as="geometry">
            <mxPoint x="460" y="660" as="sourcePoint" />
            <mxPoint x="390" y="659.5" as="targetPoint" />
          </mxGeometry>
        </mxCell>
        <mxCell id="r-cdDHOCOQJCGdyeqQd3-7" value="" style="verticalLabelPosition=bottom;html=1;verticalAlign=top;align=center;strokeColor=none;fillColor=#00BEF2;shape=mxgraph.azure.computer;pointerEvents=1;" vertex="1" parent="1">
          <mxGeometry x="250" y="1000" width="110" height="90" as="geometry" />
        </mxCell>
        <mxCell id="r-cdDHOCOQJCGdyeqQd3-8" value="" style="shape=actor;whiteSpace=wrap;html=1;" vertex="1" parent="1">
          <mxGeometry x="180" y="1010" width="50" height="60" as="geometry" />
        </mxCell>
        <mxCell id="r-cdDHOCOQJCGdyeqQd3-10" value="" style="endArrow=classic;html=1;" edge="1" parent="1">
          <mxGeometry width="50" height="50" relative="1" as="geometry">
            <mxPoint x="380" y="1020" as="sourcePoint" />
            <mxPoint x="450" y="1020" as="targetPoint" />
          </mxGeometry>
        </mxCell>
        <mxCell id="r-cdDHOCOQJCGdyeqQd3-11" value="" style="endArrow=classic;html=1;" edge="1" parent="1">
          <mxGeometry width="50" height="50" relative="1" as="geometry">
            <mxPoint x="450" y="1050" as="sourcePoint" />
            <mxPoint x="380" y="1050" as="targetPoint" />
          </mxGeometry>
        </mxCell>
        <mxCell id="r-cdDHOCOQJCGdyeqQd3-15" value="Виробництво" style="text;html=1;strokeColor=none;fillColor=none;align=center;verticalAlign=middle;whiteSpace=wrap;rounded=0;" vertex="1" parent="1">
          <mxGeometry x="285" y="570" width="40" height="20" as="geometry" />
        </mxCell>
        <mxCell id="r-cdDHOCOQJCGdyeqQd3-16" value="Офіс" style="text;html=1;strokeColor=none;fillColor=none;align=center;verticalAlign=middle;whiteSpace=wrap;rounded=0;" vertex="1" parent="1">
          <mxGeometry x="273.05" y="970" width="65" height="20" as="geometry" />
        </mxCell>
        <mxCell id="r-cdDHOCOQJCGdyeqQd3-17" value="база&lt;br&gt;полімікс" style="shape=cylinder3;whiteSpace=wrap;html=1;boundedLbl=1;backgroundOutline=1;size=15;" vertex="1" parent="1">
          <mxGeometry x="1280" y="590" width="140" height="110" as="geometry" />
        </mxCell>
        <mxCell id="r-cdDHOCOQJCGdyeqQd3-18" value="база&lt;br&gt;збірних замовлень" style="shape=cylinder3;whiteSpace=wrap;html=1;boundedLbl=1;backgroundOutline=1;size=15;" vertex="1" parent="1">
          <mxGeometry x="1280" y="985" width="140" height="110" as="geometry" />
        </mxCell>
        <mxCell id="r-cdDHOCOQJCGdyeqQd3-19" value="&lt;h1&gt;Виробництво&lt;/h1&gt;&lt;p&gt;• Друкує стікер&lt;/p&gt;&lt;p&gt;• Відмічає виконане замовлення&lt;/p&gt;" style="text;html=1;strokeColor=none;fillColor=none;spacing=5;spacingTop=-20;whiteSpace=wrap;overflow=hidden;rounded=0;" vertex="1" parent="1">
          <mxGeometry x="220" y="730" width="210" height="120" as="geometry" />
        </mxCell>
        <mxCell id="r-cdDHOCOQJCGdyeqQd3-20" value="&lt;h1&gt;Офіс&lt;/h1&gt;&lt;p&gt;• додає замовлення&lt;/p&gt;" style="text;html=1;strokeColor=none;fillColor=none;spacing=5;spacingTop=-20;whiteSpace=wrap;overflow=hidden;rounded=0;" vertex="1" parent="1">
          <mxGeometry x="220" y="1120" width="210" height="120" as="geometry" />
        </mxCell>
        <mxCell id="r-cdDHOCOQJCGdyeqQd3-24" style="edgeStyle=orthogonalEdgeStyle;rounded=1;orthogonalLoop=1;jettySize=auto;html=1;exitX=1;exitY=0;exitDx=0;exitDy=0;entryX=0;entryY=0.5;entryDx=0;entryDy=0;" edge="1" parent="1" source="r-cdDHOCOQJCGdyeqQd3-22" target="r-cdDHOCOQJCGdyeqQd3-23">
          <mxGeometry relative="1" as="geometry">
            <Array as="points">
              <mxPoint x="700" y="960" />
            </Array>
          </mxGeometry>
        </mxCell>
        <mxCell id="r-cdDHOCOQJCGdyeqQd3-25" value="1" style="edgeLabel;html=1;align=center;verticalAlign=middle;resizable=0;points=[];" vertex="1" connectable="0" parent="r-cdDHOCOQJCGdyeqQd3-24">
          <mxGeometry x="-0.0636" y="4" relative="1" as="geometry">
            <mxPoint as="offset" />
          </mxGeometry>
        </mxCell>
        <mxCell id="r-cdDHOCOQJCGdyeqQd3-22" value="&lt;ol&gt;&lt;li&gt;Завести замовлення в полімікс&lt;/li&gt;&lt;li&gt;Завести замовлення у базу збірних замовлень&lt;/li&gt;&lt;/ol&gt;" style="rounded=0;whiteSpace=wrap;html=1;align=left;" vertex="1" parent="1">
          <mxGeometry x="470" y="1000" width="230" height="70" as="geometry" />
        </mxCell>
        <mxCell id="r-cdDHOCOQJCGdyeqQd3-23" value="ПОЛІМІКС" style="whiteSpace=wrap;html=1;aspect=fixed;" vertex="1" parent="1">
          <mxGeometry x="877" y="920" width="80" height="80" as="geometry" />
        </mxCell>
      </root>
    </mxGraphModel>
  </diagram>
</mxfile>
